<svg xmlns="http://www.w3.org/2000/svg" xmlns:xlink="http://www.w3.org/1999/xlink" width="96" height="96" viewBox="0 0 96 96">
  <defs>
    <clipPath id="clip-path">
      <rect id="사각형_2684" data-name="사각형 2684" width="83" height="71" transform="translate(4787 2445)" fill="#fff" stroke="#707070" stroke-width="1"/>
    </clipPath>
  </defs>
  <g id="a35_01_Design_1" transform="translate(-4780 -2424)">
    <rect id="사각형_2683" data-name="사각형 2683" width="96" height="96" transform="translate(4780 2424)" fill="none"/>
    <g id="그룹_3666" data-name="그룹 3666" transform="translate(0 18)">
      <g id="그룹_3659" data-name="그룹 3659" transform="translate(0 -18)">
        <g id="마스크_그룹_24" data-name="마스크 그룹 24" clip-path="url(#clip-path)">
          <path id="패스_7201" data-name="패스 7201" d="M72,84H24A12,12,0,0,1,12,72V-3a1,1,0,0,1,1-1H83a1,1,0,0,1,1,1V72A12,12,0,0,1,72,84Z" transform="translate(4876 2532) rotate(180)" fill="none" stroke="#000" stroke-miterlimit="10" stroke-width="4"/>
        </g>
      </g>
      <circle id="타원_465" data-name="타원 465" cx="5.5" cy="5.5" r="5.5" transform="translate(4802 2441)"/>
      <circle id="타원_466" data-name="타원 466" cx="5.5" cy="5.5" r="5.5" transform="translate(4802 2457)"/>
      <circle id="타원_467" data-name="타원 467" cx="5.5" cy="5.5" r="5.5" transform="translate(4802 2473)"/>
    </g>
    <g id="그룹_3667" data-name="그룹 3667" transform="translate(3974 2115.719)">
      <line id="선_1847" data-name="선 1847" y2="7" transform="translate(854 314)" fill="none" stroke="#000" stroke-linecap="round" stroke-miterlimit="10" stroke-width="4"/>
      <line id="선_1868" data-name="선 1868" y2="7" transform="translate(876.75 316.5) rotate(30)" fill="none" stroke="#000" stroke-linecap="round" stroke-miterlimit="10" stroke-width="4"/>
      <line id="선_1869" data-name="선 1869" y2="7" transform="translate(834.75 322.562) rotate(150)" fill="none" stroke="#000" stroke-linecap="round" stroke-miterlimit="10" stroke-width="4"/>
    </g>
  </g>
</svg>
