<svg xmlns="http://www.w3.org/2000/svg" xmlns:xlink="http://www.w3.org/1999/xlink" width="96" height="96" viewBox="0 0 96 96">
  <defs>
    <clipPath id="clip-path">
      <rect id="사각형_2684" data-name="사각형 2684" width="83" height="89" transform="translate(4787 2427)" fill="#fff" stroke="#707070" stroke-width="1"/>
    </clipPath>
  </defs>
  <g id="a35_02_Display_1" transform="translate(-4780 -2424)">
    <rect id="사각형_2683" data-name="사각형 2683" width="96" height="96" transform="translate(4780 2424)" fill="none"/>
    <g id="그룹_3665" data-name="그룹 3665">
      <g id="마스크_그룹_23" data-name="마스크 그룹 23" clip-path="url(#clip-path)">
        <path id="패스_7201" data-name="패스 7201" d="M72,84H24A12,12,0,0,1,12,72V-3a1,1,0,0,1,1-1H83a1,1,0,0,1,1,1V72A12,12,0,0,1,72,84Z" transform="translate(4876 2514) rotate(180)" fill="none" stroke="#000" stroke-miterlimit="10" stroke-width="4"/>
      </g>
    </g>
    <circle id="타원_465" data-name="타원 465" cx="4" cy="4" r="4" transform="translate(4824 2437)"/>
    <path id="패스_7202" data-name="패스 7202" d="M-8549.378-3680.52l-13.582,13.582" transform="translate(13369 6136)" fill="none" stroke="#000" stroke-linecap="round" stroke-width="4"/>
    <path id="패스_7203" data-name="패스 7203" d="M-8529.613-3680.52l-33.348,33.346" transform="translate(13366.235 6136)" fill="none" stroke="#000" stroke-linecap="round" stroke-width="4"/>
  </g>
</svg>
